<svg width="32" height="32" viewBox="0 0 156.678 156.678" xmlns="http://www.w3.org/2000/svg">
   <g transform="translate(-39.023 -104.772)">
      <rect width="156.678" height="156.678" x="39.023" y="104.772" ry="30.857" fill="#f03a17" />
      <g fill="#fff">
         <path
            d="M142.724 201.353a32.84 32.84 0 00-63.637-7.225 21.894 21.894 0 001.802 43.714h62.032a18.245 18.245 0 000-36.489z" />
         <path
            d="M135.623 132.024a3.649 3.649 0 00-7.298 0v7.298a3.649 3.649 0 007.298 0zm27.316 14.333a3.649 3.649 0 10-5.16-5.16l-5.166 5.16a3.654 3.654 0 005.167 5.166zm-56.77-5.16a3.649 3.649 0 00-5.16 5.16l5.16 5.166a3.654 3.654 0 105.167-5.166zm12.655 24.623a14.596 14.596 0 1124.053 16.04 40.114 40.114 0 013.766 6.554 21.894 21.894 0 10-35.322-23.535c2.57.082 5.08.4 7.503.94zm32.723 29.731a25.614 25.614 0 0111.108 7.824 3.649 3.649 0 00.284-5.415l-5.16-5.16a3.649 3.649 0 00-6.232 2.753zm13.268-27.038a3.649 3.649 0 000 7.298h7.298a3.649 3.649 0 000-7.298z" />
      </g>
   </g>
</svg>